# xmcd
#
# Track frame offsets: 
#        182
#        20857
#        38280
#        54377
#        71430
#        84745
#        101355
#        116192
#        131075
#        152850
#        164630
#        184567
#        203490
#        221992
#        249615
#        262727
#
# Disc length: 3668 seconds
#
# Revision: 0
# Processed by: cddbd v1.5PL3 Copyright (c) Steve Scherf et al.
# Submitted via: ExactAudioCopy v0.95a5
#
DISCID=df0e5210
DTITLE=Memphis Slim - Born With The Blues
DYEAR=1900
DGENRE=Blues
TTITLE0=Late Afternoon Blues
TTITLE1=I Belive I'll Settle Down
TTITLE2=Born With The Blues
TTITLE3=Bad Luck and Troubles
TTITLE4=Memphis Slim U.S.A
TTITLE5=Just Let Me Be
TTITLE6=Rockin' Chair Blues
TTITLE7=I Feel So Good
TTITLE8=Slow Blues
TTITLE9=Frisco Bay
TTITLE10=Beer Drinkin' Woman
TTITLE11=Blues For Bertha May
TTITLE12=In The Evening
TTITLE13=If You See Kay
TTITLE14=Two Of a Kind
TTITLE15=Chicago Stomp
EXTD=
EXTT0=
EXTT1=
EXTT2=
EXTT3=
EXTT4=
EXTT5=
EXTT6=
EXTT7=
EXTT8=
EXTT9=
EXTT10=
EXTT11=
EXTT12=
EXTT13=
EXTT14=
EXTT15=
PLAYORDER=
